<svg width="52" height="54" fill="none" xmlns="http://www.w3.org/2000/svg">
    <g filter="url(#a)">
        <path d="m31.307 24.122-2.952-6.763-.644-.446-.755-.24-1.02-.275-1.2.515-.799.446 3.02 6.762h4.35Z" fill="url(#b)"/>
    </g>
    <g filter="url(#c)">
        <path d="m20.712 21.86 2.952 6.779.644.447.754.24 1.021.276 1.199-.516.8-.447-3.02-6.779h-4.35Z" fill="url(#d)"/>
    </g>
    <path d="m23.78 17.448-4.584 6.624 4.583.05 3.313-6.674c.233-.683.96-.285 1.295 0-1.43-2.622-3.668-1.093-4.608 0ZM28.22 28.552l4.584-6.624-4.583-.05-3.313 6.674c-.233.683-.96.285-1.295 0 1.43 2.622 3.668 1.093 4.608 0Z" fill="#fff"/>
    <defs>
        <linearGradient id="b" x1="30.543" y1="24.122" x2="27.042" y2="17.572" gradientUnits="userSpaceOnUse">
            <stop/>
            <stop offset=".495" stop-color="#fff"/>
            <stop offset="1" stop-color="#fff"/>
        </linearGradient>
        <linearGradient id="d" x1="21.475" y1="21.86" x2="24.989" y2="28.419" gradientUnits="userSpaceOnUse">
            <stop stop-color="#0C0C0C"/>
            <stop offset=".495" stop-color="#fff"/>
            <stop offset="1" stop-color="#fff"/>
        </linearGradient>
        <filter id="a" x="3.938" y=".398" width="47.369" height="47.724" filterUnits="userSpaceOnUse" color-interpolation-filters="sRGB">
            <feFlood flood-opacity="0" result="BackgroundImageFix"/>
            <feColorMatrix in="SourceAlpha" values="0 0 0 0 0 0 0 0 0 0 0 0 0 0 0 0 0 0 127 0" result="hardAlpha"/>
            <feOffset dy="4"/>
            <feGaussianBlur stdDeviation="10"/>
            <feComposite in2="hardAlpha" operator="out"/>
            <feColorMatrix values="0 0 0 0 0 0 0 0 0 0 0 0 0 0 0 0 0 0 0.25 0"/>
            <feBlend in2="BackgroundImageFix" result="effect1_dropShadow_74_754"/>
            <feBlend in="SourceGraphic" in2="effect1_dropShadow_74_754" result="shape"/>
        </filter>
        <filter id="c" x=".712" y="5.86" width="47.369" height="47.742" filterUnits="userSpaceOnUse" color-interpolation-filters="sRGB">
            <feFlood flood-opacity="0" result="BackgroundImageFix"/>
            <feColorMatrix in="SourceAlpha" values="0 0 0 0 0 0 0 0 0 0 0 0 0 0 0 0 0 0 127 0" result="hardAlpha"/>
            <feOffset dy="4"/>
            <feGaussianBlur stdDeviation="10"/>
            <feComposite in2="hardAlpha" operator="out"/>
            <feColorMatrix values="0 0 0 0 0 0 0 0 0 0 0 0 0 0 0 0 0 0 0.25 0"/>
            <feBlend in2="BackgroundImageFix" result="effect1_dropShadow_74_754"/>
            <feBlend in="SourceGraphic" in2="effect1_dropShadow_74_754" result="shape"/>
        </filter>
    </defs>
</svg>
