<svg xmlns="http://www.w3.org/2000/svg" viewBox="0 0 32 32">
<style>
g{display:none}
g:target{display:inline}
</style>
<g id="send"><path d="M24 2L0 13.25L7.66994 15.6172L19.5 6.375L10.5017 16.4913L10.509 16.4936L10.5 16.4913V22L14.8013 17.8183L20.2501 19.5L24 2Z" fill="#fff"/></g>
<g id="checkbox"><path d="M11.4607 4.48931C11.6251 4.34489 11.8438 4.26504 12.0707 4.26662C12.2976 4.26821 12.515 4.3511 12.6769 4.49781C12.8389 4.64451 12.9328 4.84356 12.9388 5.05295C12.9448 5.26233 12.8624 5.46568 12.7091 5.62008L8.05408 10.9939C7.97404 11.0735 7.87743 11.1374 7.77004 11.1817C7.66264 11.226 7.54667 11.2499 7.42904 11.2519C7.31142 11.2539 7.19456 11.234 7.08546 11.1934C6.97637 11.1528 6.87726 11.0923 6.79408 11.0155L3.70708 8.16593C3.62111 8.09198 3.55216 8.00281 3.50434 7.90374C3.45651 7.80466 3.4308 7.69771 3.42873 7.58926C3.42665 7.48081 3.44826 7.37309 3.49227 7.27252C3.53628 7.17194 3.60178 7.08058 3.68487 7.00389C3.76796 6.92719 3.86693 6.86673 3.97588 6.8261C4.08484 6.78548 4.20154 6.76553 4.31903 6.76744C4.43651 6.76936 4.55238 6.7931 4.65971 6.83724C4.76704 6.88139 4.86364 6.94503 4.94375 7.02439L7.38675 9.27839L11.4386 4.51301C11.4459 4.50471 11.4537 4.4968 11.4619 4.48931H11.4607Z" fill="#F4F4FD"/></g>
<defs>
<symbol id="menu" viewBox="0 0 24 24"><path d="M2 5.995C2 5.445 2.446 5 2.995 5H11.005C11.2689 5 11.522 5.10483 11.7086 5.29143C11.8952 5.47803 12 5.73111 12 5.995C12 6.25889 11.8952 6.51197 11.7086 6.69857C11.522 6.88517 11.2689 6.99 11.005 6.99H2.995C2.73111 6.99 2.47803 6.88517 2.29143 6.69857C2.10483 6.51197 2 6.25889 2 5.995ZM2 12C2 11.45 2.446 11.005 2.995 11.005H21.005C21.2689 11.005 21.522 11.1098 21.7086 11.2964C21.8952 11.483 22 11.7361 22 12C22 12.2639 21.8952 12.517 21.7086 12.7036C21.522 12.8902 21.2689 12.995 21.005 12.995H2.995C2.73111 12.995 2.47803 12.8902 2.29143 12.7036C2.10483 12.517 2 12.2639 2 12ZM2.995 17.01C2.73111 17.01 2.47803 17.1148 2.29143 17.3014C2.10483 17.488 2 17.7411 2 18.005C2 18.2689 2.10483 18.522 2.29143 18.7086C2.47803 18.8952 2.73111 19 2.995 19H15.005C15.2689 19 15.522 18.8952 15.7086 18.7086C15.8952 18.522 16 18.2689 16 18.005C16 17.7411 15.8952 17.488 15.7086 17.3014C15.522 17.1148 15.2689 17.01 15.005 17.01H2.995Z" fill="white"/></symbol>

<symbol id="check" viewBox="0 0 16 16"><path d="M11.4456 4.25506C11.6184 4.08965 11.8483 3.99821 12.0869 4.00003C12.3255 4.00184 12.5541 4.09677 12.7244 4.26478C12.8947 4.4328 12.9934 4.66075 12.9997 4.90055C13.006 5.14034 12.9194 5.37323 12.7582 5.55005L7.86357 11.7044C7.7794 11.7955 7.67782 11.8686 7.5649 11.9194C7.45198 11.9702 7.33003 11.9975 7.20636 11.9998C7.08268 12.0021 6.95981 11.9793 6.8451 11.9328C6.73038 11.8863 6.62618 11.817 6.53872 11.729L3.29283 8.46564C3.20243 8.38096 3.12993 8.27884 3.07965 8.16537C3.02936 8.05191 3.00232 7.92942 3.00014 7.80522C2.99796 7.68102 3.02069 7.55765 3.06696 7.44248C3.11323 7.3273 3.18211 7.22267 3.26947 7.13483C3.35684 7.047 3.4609 6.97775 3.57547 6.93123C3.69003 6.88471 3.81273 6.86186 3.93627 6.86405C4.0598 6.86624 4.18163 6.89343 4.29449 6.94398C4.40734 6.99454 4.50892 7.06743 4.59315 7.15831L7.16189 9.73967L11.4223 4.28219C11.4299 4.27269 11.4381 4.26364 11.4468 4.25506H11.4456Z"/></symbol>
<symbol id="menu1" viewBox="0 0 32 22"><path stroke="#2E2F42" stroke-linecap="round" stroke-linejoin="round" stroke-width="3" d="M1.348 20.043h29.539M1.348 10.735h29.539M1.348 1.428h29.539"/></symbol>
<symbol id="close" viewBox="0 0 8 8"><path d="M8 0.805714L7.19429 0L4 3.19429L0.805714 0L0 0.805714L3.19429 4L0 7.19429L0.805714 8L4 4.80571L7.19429 8L8 7.19429L4.80571 4L8 0.805714Z"/></symbol>
<symbol id="email" viewBox="0 0 24 24"><path d="M21.334 4H2.666a1.333 1.333 0 0 0-1.333 1.333v13.334A1.333 1.333 0 0 0 2.667 20h18.666a1.333 1.333 0 0 0 1.334-1.333V5.333A1.333 1.333 0 0 0 21.333 4Zm-1.027 14.667H3.773L8.44 13.84l-.96-.927-4.813 4.98V6.347l8.287 8.246a1.333 1.333 0 0 0 1.88 0l8.5-8.453v11.667L16.427 12.9l-.94.94 4.82 4.827ZM3.54 5.333h16.713l-8.36 8.314L3.54 5.333Z"/></symbol>
<symbol id="phone" viewBox="0 0 24 24"><path d="M18 0H4.5C3.675 0 3 .675 3 1.5v21c0 .825.675 1.5 1.5 1.5H18c.825 0 1.5-.675 1.5-1.5v-21C19.5.675 18.825 0 18 0zm-6.75 22.917a1.167 1.167 0 1 1 0-2.334 1.167 1.167 0 0 1 0 2.334zM18 19.5H4.5V3H18v16.5z"/></symbol>
<symbol id="ico-ig" viewBox="0 0 24 24"><path d="M23.977 7.056c-.057-1.275-.263-2.152-.558-2.912a5.857 5.857 0 0 0-1.388-2.128A5.905 5.905 0 0 0 19.907.633C19.143.338 18.27.13 16.995.075 15.711.015 15.303 0 12.046 0 8.785 0 8.377.014 7.097.07 5.823.127 4.946.333 4.187.628a5.856 5.856 0 0 0-2.129 1.388A5.909 5.909 0 0 0 .675 4.14C.38 4.904.173 5.776.117 7.05.057 8.336.042 8.744.042 12.002c0 3.259.014 3.667.07 4.947.057 1.275.263 2.151.559 2.911a5.919 5.919 0 0 0 1.387 2.129c.6.61 1.327 1.083 2.124 1.383.764.295 1.636.501 2.912.558 1.28.056 1.687.07 4.946.07 3.258 0 3.666-.014 4.946-.07 1.275-.057 2.152-.263 2.912-.558a6.139 6.139 0 0 0 3.511-3.512c.296-.764.502-1.636.558-2.911.056-1.28.07-1.688.07-4.947 0-3.258-.004-3.666-.06-4.946Zm-2.162 9.799c-.051 1.172-.248 1.805-.412 2.227a3.981 3.981 0 0 1-2.279 2.278c-.422.165-1.06.361-2.227.413-1.266.056-1.645.07-4.848.07-3.202 0-3.586-.014-4.848-.07-1.172-.052-1.805-.248-2.227-.413a3.693 3.693 0 0 1-1.378-.895 3.73 3.73 0 0 1-.896-1.378c-.164-.422-.36-1.06-.412-2.227-.056-1.266-.07-1.646-.07-4.848 0-3.203.014-3.587.07-4.848.052-1.172.248-1.805.412-2.227.193-.52.498-.994.9-1.379a3.726 3.726 0 0 1 1.38-.895c.421-.164 1.059-.36 2.226-.413 1.266-.056 1.646-.07 4.848-.07 3.207 0 3.586.014 4.848.07 1.172.052 1.805.249 2.227.413.52.192.994.497 1.378.895.399.39.703.858.896 1.379.164.422.36 1.06.412 2.227.056 1.266.07 1.645.07 4.848 0 3.202-.014 3.577-.07 4.843Z"/><path d="M12.044 5.837a6.167 6.167 0 0 0-6.165 6.165 6.167 6.167 0 0 0 6.165 6.166 6.167 6.167 0 0 0 6.166-6.166 6.167 6.167 0 0 0-6.166-6.165Zm0 10.165a4 4 0 1 1 .002-8 4 4 0 0 1-.002 8ZM19.893 5.593a1.44 1.44 0 1 1-2.879 0 1.44 1.44 0 0 1 2.879 0Z"/></symbol>
<symbol id="ico-tw" viewBox="0 0 24 24"><path d="M24 4.559c-.892.391-1.843.65-2.835.776a4.893 4.893 0 0 0 2.165-2.719 9.833 9.833 0 0 1-3.12 1.191 4.919 4.919 0 0 0-8.511 3.365c0 .39.033.764.114 1.121-4.091-.199-7.71-2.16-10.142-5.146a4.954 4.954 0 0 0-.673 2.487c0 1.704.877 3.214 2.185 4.089A4.859 4.859 0 0 1 .96 9.117v.054a4.943 4.943 0 0 0 3.942 4.835c-.4.109-.837.162-1.29.162a4.35 4.35 0 0 1-.932-.084c.638 1.948 2.447 3.38 4.598 3.427a9.886 9.886 0 0 1-6.1 2.099c-.404 0-.791-.018-1.178-.068a13.852 13.852 0 0 0 7.548 2.208c9.054 0 14.004-7.5 14.004-14.001 0-.217-.008-.427-.018-.636A9.816 9.816 0 0 0 24 4.559Z"/></symbol>
<symbol id="ico-fb" viewBox="0 0 24 24"><path d="M15.997 3.985h2.191V.169C17.81.117 16.51 0 14.996 0c-3.159 0-5.323 1.987-5.323 5.639V9H6.187v4.266h3.486V24h4.274V13.267h3.345l.531-4.266h-3.877V6.062c.001-1.233.333-2.077 2.051-2.077Z"/></symbol>
<symbol id="ico-in" viewBox="0 0 24 24"><path d="M23.994 24H24v-8.803c0-4.306-.927-7.623-5.961-7.623-2.42 0-4.044 1.328-4.707 2.587h-.07V7.976H8.489V24h4.97v-7.934c0-2.089.396-4.109 2.983-4.109 2.549 0 2.587 2.384 2.587 4.243V24h4.965ZM.396 7.977h4.976V24H.396V7.977ZM2.882 0A2.883 2.883 0 0 0 0 2.882c0 1.591 1.291 2.909 2.882 2.909 1.591 0 2.882-1.318 2.882-2.909A2.884 2.884 0 0 0 2.882 0Z"/></symbol>
<symbol id="user" viewBox="0 0 18 24"><path d="M9 12C10.6575 12 12 10.6575 12 9C12 7.3425 10.6575 6 9 6C7.3425 6 6 7.3425 6 9C6 10.6575 7.3425 12 9 12ZM9 13.5C6.9975 13.5 3 14.505 3 16.5V17.25C3 17.6625 3.3375 18 3.75 18H14.25C14.6625 18 15 17.6625 15 17.25V16.5C15 14.505 11.0025 13.5 9 13.5Z"/></symbol>
<symbol id="oldphone" viewBox="0 0 24 32"><path d="m19.635 18.487-2.451-.28a1.92 1.92 0 0 0-1.582.55l-1.775 1.775a14.514 14.514 0 0 1-6.359-6.359l1.785-1.785c.415-.415.618-.994.55-1.582l-.28-2.432a1.931 1.931 0 0 0-1.92-1.708H5.934c-1.09 0-1.997.907-1.93 1.997.511 8.24 7.102 14.821 15.332 15.332 1.09.068 1.997-.839 1.997-1.93v-1.669a1.913 1.913 0 0 0-1.698-1.911z"/></symbol>
<symbol id="mail" viewBox="0 0 24 32"><path d="M20 8H4c-1.1 0-1.99.9-1.99 2L2 22c0 1.1.9 2 2 2h16c1.1 0 2-.9 2-2V10c0-1.1-.9-2-2-2zm-.4 4.25-7.07 4.42c-.32.2-.74.2-1.06 0L4.4 12.25a.85.85 0 1 1 .9-1.44L12 15l6.7-4.19a.85.85 0 1 1 .9 1.44z"/></symbol>
</defs></svg>